<?xml version="1.0" encoding="iso-8859-1"?>
<!-- Uploaded to: SVG Repo, www.svgrepo.com, Generator: SVG Repo Mixer Tools -->
<svg height="800px" width="800px" version="1.1" id="Layer_1" xmlns="http://www.w3.org/2000/svg" xmlns:xlink="http://www.w3.org/1999/xlink" 
	 viewBox="0 0 501.014 501.014" xml:space="preserve">
<g>
	<g>
		<path fill="currentColor" stroke="currentColor" d="M406.081,265.984c-16-44.8-52.267-73.6-94.933-73.6c-1.067,0-1.067,0-2.133,0c-5.333-46.933-38.4-86.4-83.2-99.2
			c-28.8-7.467-58.667-3.2-84.267,11.733c-26.667,16-45.867,41.6-53.333,72.533c-12.8,53.333,11.733,107.733,56.533,132.267
			c-13.867,20.267-22.4,45.867-22.4,73.6c0,59.733,38.4,109.867,90.667,116.267c4.267,1.067,189.867,1.067,194.133,0
			c53.333-4.267,93.867-55.467,93.867-116.267C501.014,321.451,459.414,270.251,406.081,265.984z M128.747,187.051
			c5.333-20.267,17.067-37.333,34.133-46.933c16-9.6,34.133-11.733,52.267-7.467c29.867,8.533,52.267,37.333,53.333,71.467
			c-23.467,12.8-41.6,35.2-51.2,61.867c-13.867,1.067-26.667,5.333-38.4,12.8C140.481,268.118,119.147,227.584,128.747,187.051z
			 M401.814,459.051c-1.067,0-182.4,0-183.467,0c-29.867-3.2-54.4-36.267-54.4-74.667c0-41.6,26.667-75.733,59.733-75.733
			c2.133,0,4.267,0,4.267,0c11.733,2.133,21.333-5.333,23.467-16c5.333-26.667,22.4-48,43.733-54.4
			c5.333-1.067,9.6-2.133,14.933-2.133c27.733,0,52.267,23.467,58.667,56.533c2.133,10.667,12.8,17.067,23.467,16
			c2.133,0,4.267,0,6.4,0c33.067,0,59.733,34.133,59.733,75.733C458.347,423.851,433.814,456.917,401.814,459.051z"/>
	</g>
</g>
<g>
	<g>
		<path fill="currentColor" stroke="currentColor" d="M249.281,1.451c-11.733-3.2-22.4,3.2-25.6,14.933l-8.533,32c-3.2,11.733,3.2,22.4,14.933,25.6
			c2.133,1.067,3.2,1.067,5.333,1.067c9.6,0,18.133-6.4,20.267-16l8.533-32C267.414,15.317,261.014,4.651,249.281,1.451z"/>
	</g>
</g>
<g>
	<g>
		<path fill="currentColor" stroke="currentColor" d="M373.014,98.517c-6.4-9.6-19.2-12.8-28.8-6.4l-27.733,17.067c-9.6,6.4-12.8,19.2-6.4,28.8
			c4.267,6.4,10.667,9.6,18.133,9.6c3.2,0,7.467-1.067,10.667-3.2l27.733-17.067C376.214,120.917,379.414,108.118,373.014,98.517z"
			/>
	</g>
</g>
<g>
	<g>
		<path fill="currentColor" stroke="currentColor" d="M85.014,275.584c-6.4-9.6-19.2-12.8-28.8-6.4L28.48,286.251c-9.6,6.4-12.8,19.2-6.4,28.8c4.267,6.4,10.667,9.6,18.133,9.6
			c4.267,0,7.467,0,10.667-3.2l27.733-17.067C88.214,297.984,91.414,285.185,85.014,275.584z"/>
	</g>
</g>
<g>
	<g>
		<path fill="currentColor" stroke="currentColor" d="M139.414,60.118l-16-28.8c-6.4-9.6-19.2-12.8-28.8-7.467c-10.667,5.333-13.867,18.133-8.533,28.8l17.066,28.8
			c4.267,6.4,10.667,10.667,18.133,10.667c3.2,0,6.4-1.067,10.667-3.2C141.548,82.518,144.748,69.718,139.414,60.118z"/>
	</g>
</g>
<g>
	<g>
		<path fill="currentColor" stroke="currentColor" d="M57.281,147.584l-30.933-8.533c-10.667-3.2-22.4,4.267-25.6,14.933c-3.2,10.667,4.267,22.4,14.933,25.6l30.933,7.467
			c2.133,1.066,3.2,1.066,5.333,1.066c9.6,0,17.067-6.4,20.267-14.933C75.414,162.518,67.947,150.784,57.281,147.584z"/>
	</g>
</g>
</svg>