<?xml version="1.0" encoding="utf-8"?><!-- Uploaded to: SVG Repo, www.svgrepo.com, Generator: SVG Repo Mixer Tools -->
<svg width="800px" height="800px" viewBox="0 0 24 24" fill="none" xmlns="http://www.w3.org/2000/svg">
<path d="M5 9L10.9011 7.31397C11.6193 7.10876 12.3807 7.10876 13.0989 7.31397L19 9M5 9V7.5C5 6.67157 4.32843 6 3.5 6V6C2.67157 6 2 6.67157 2 7.5V10C2 11.1046 2.89543 12 4 12H5M5 9V12M19 9V12M19 9V7.5C19 6.67157 19.6716 6 20.5 6V6C21.3284 6 22 6.67157 22 7.5V10C22 11.1046 21.1046 12 20 12H19M19 12V12C19 15.866 15.866 19 12 19V19C8.13401 19 5 15.866 5 12V12" stroke="currentColor" stroke-width="2" stroke-linecap="round" stroke-linejoin="round"/>
</svg>