<?xml version="1.0" encoding="utf-8"?><!-- Uploaded to: SVG Repo, www.svgrepo.com, Generator: SVG Repo Mixer Tools -->
<svg width="800px" height="800px" viewBox="0 0 24 24" fill="currentColor" stroke="currentColor" xmlns="http://www.w3.org/2000/svg">
<path fill-rule="evenodd" clip-rule="evenodd" d="M12 5.99561L19.5 6.82894V7.50022C20.7426 7.50022 21.75 8.50758 21.75 9.75022V12.7502C21.75 13.9929 20.7426 15.0002 19.5 15.0002V15.3234L19.2652 15.5453C16.8056 17.8698 14.6206 18.7353 12.2187 19.4676L12 19.5343L11.7813 19.4676C9.37944 18.7353 7.1944 17.8698 4.73485 15.5453L4.5 15.3234L4.5 15.0002C3.25736 15.0002 2.25 13.9929 2.25 12.7502V9.75022C2.25 8.50758 3.25736 7.50022 4.5 7.50022L4.5 6.82894L12 5.99561ZM19.5 13.5002C19.9142 13.5002 20.25 13.1644 20.25 12.7502V9.75022C20.25 9.336 19.9142 9.00022 19.5 9.00022V13.5002ZM3.75 9.75022C3.75 9.336 4.08579 9.00022 4.5 9.00022L4.5 13.5002C4.08579 13.5002 3.75 13.1644 3.75 12.7502L3.75 9.75022ZM6 8.1715V14.6732C8.0587 16.5498 9.88931 17.3099 12 17.9655C14.1107 17.3099 15.9413 16.5498 18 14.6732V8.1715L12 7.50484L6 8.1715ZM8.25 12.0002V10.5002H15.75V12.0002H8.25ZM8.25 14.2502H15.75V12.7502H8.25V14.2502Z" fill="currentColor" stroke="currentColor"/>
</svg>